<svg xmlns="http://www.w3.org/2000/svg" width="48" height="48" viewBox="0 0 48 48"><path d="M 24 0 C 10.75108 0 -1.1e-005 10.7511 0 24 C 0 37.2489 10.751088 48 24 48 C 37.248912 48 48 37.2489 48 24 C 48.000011 10.7511 37.24892 0 24 0 z M 24 1 C 36.708479 1 47.000011 11.2915 47 24 C 47 36.7085 36.708472 47 24 47 C 11.291528 47 1 36.7085 1 24 C 0.999989 11.2915 11.291521 1 24 1 z M 31 16.009766 L 31 17.009766 L 14.501953 17.009766 A 0.50005 0.50005 0 0 0 14.015625 17.388672 L 13.015625 21.386719 A 0.50005 0.50005 0 0 0 13.054688 21.732422 L 14.054688 23.732422 A 0.50005 0.50005 0 0 0 14.501953 24.009766 L 15.933594 24.009766 L 15.046875 31.255859 A 0.50005 0.50005 0 0 0 15.025391 31.296875 L 14.050781 33.279297 A 0.50005 0.50005 0 0 0 14.5 34 L 21.5 34 A 0.50005 0.50005 0 0 0 21.957031 33.298828 L 21.082031 31.316406 A 0.50005 0.50005 0 0 0 21.037109 31.236328 L 21.554688 27.039062 L 25.365234 27.039062 L 26.339844 24.009766 L 33.498047 24.009766 A 0.50005 0.50005 0 0 0 33.998047 23.509766 L 33.998047 21.009766 L 35.5 21.009766 A 0.50005 0.50005 0 0 0 36 20.509766 L 36 18.509766 A 0.50005 0.50005 0 0 0 35.5 18.009766 L 33.998047 18.009766 L 33.998047 17.509766 A 0.50005 0.50005 0 0 0 33.498047 17.009766 L 32 17.009766 L 32 16.009766 L 31 16.009766 z M 14.890625 18.009766 L 32.998047 18.009766 L 32.998047 23.009766 L 21.564453 23.009766 A 0.50005006 0.50005006 0 0 0 21.486328 23 L 16.5 23 A 0.50005006 0.50005006 0 0 0 16.425781 23.009766 L 14.810547 23.009766 L 14.03125 21.451172 L 14.890625 18.009766 z M 16 19.009766 L 16 20.009766 L 19 20.009766 L 19 19.009766 L 16 19.009766 z M 26 19.009766 L 26 20.009766 L 27 20.009766 L 27 19.009766 L 26 19.009766 z M 28 19.009766 L 28 20.009766 L 29 20.009766 L 29 19.009766 L 28 19.009766 z M 30 19.009766 L 30 20.009766 L 31 20.009766 L 31 19.009766 L 30 19.009766 z M 34 19.009766 L 35 19.009766 L 35 20.009766 L 34 20.009766 L 34 19.009766 z M 16.943359 24.009766 L 20.921875 24.009766 L 20.058594 31.013672 L 16.083984 31.013672 L 16.943359 24.009766 z M 21.927734 24.009766 L 22.662109 24.009766 C 22.66211 24.536366 22.799208 25.053766 23.0625 25.509766 A 0.5005035 0.5005035 0 0 0 23.929688 25.009766 C 23.754137 24.705666 23.662109 24.360866 23.662109 24.009766 L 25.287109 24.009766 L 24.634766 26.039062 L 21.677734 26.039062 L 21.927734 24.009766 z M 18.5 27.007812 A 0.5 0.5 0 0 0 18 27.507812 A 0.5 0.5 0 0 0 18.5 28.007812 A 0.5 0.5 0 0 0 19 27.507812 A 0.5 0.5 0 0 0 18.5 27.007812 z M 18 29.007812 A 0.5 0.5 0 0 0 17.5 29.507812 A 0.5 0.5 0 0 0 18 30.007812 A 0.5 0.5 0 0 0 18.5 29.507812 A 0.5 0.5 0 0 0 18 29.007812 z M 15.787109 32.017578 L 20.298828 32.017578 L 20.732422 33 L 15.304688 33 L 15.787109 32.017578 z " color="#000" font-family="sans-serif" font-weight="400" overflow="visible" white-space="normal" style="line-height:normal;text-indent:0;text-align:start;text-decoration-line:none;text-decoration-style:solid;text-decoration-color:#000;text-transform:none;block-progression:tb;isolation:auto;mix-blend-mode:normal"/></svg>