<svg xmlns="http://www.w3.org/2000/svg" viewBox="0 0 48 48"><g data-name="jump rope"><path fill="#d0d0d0" d="M25.5,2C14.2,2,5,14.11,5,29a1,1,0,0,0,2,0C7,15.21,15.3,4,25.5,4S44,15.21,44,29V41a3,3,0,0,1-6,0V30a8,8,0,0,0-8-8,7,7,0,0,0-7,7,1,1,0,0,0,2,0,5,5,0,0,1,5-5,6,6,0,0,1,6,6V41a5,5,0,0,0,10,0V29C46,14.11,36.8,2,25.5,2Z"/><path fill="#8dc63f" d="M27 28H21a1 1 0 0 0-1 1V42a4 4 0 0 0 8 0V29A1 1 0 0 0 27 28zM9 28H3a1 1 0 0 0-1 1V42a4 4 0 0 0 8 0V29A1 1 0 0 0 9 28z"/><path fill="#fff155" d="M26 39H22a1 1 0 0 0 0 2h4a1 1 0 0 0 0-2zM22 37h4a1 1 0 0 0 0-2H22a1 1 0 0 0 0 2zM8 35H4a1 1 0 0 0 0 2H8a1 1 0 0 0 0-2zM8 39H4a1 1 0 0 0 0 2H8a1 1 0 0 0 0-2z"/></g></svg>