<svg xmlns="http://www.w3.org/2000/svg" viewBox="0 0 64 64"><g data-name="Laser Gun"><path fill="#6cc5ef" d="M59.15,24.68A3.72,3.72,0,1,1,55.44,21,3.71,3.71,0,0,1,59.15,24.68Z"/><path fill="#fcc667" d="M38.35,19.84l4.34,1.32v7l-4.34,1.31Z"/><path fill="#6cc5ef" d="M10.51,16.9V32.46h3.92L10.31,47.1h9.78l4.12-14.64h11.2a3,3,0,0,0,2.94-2.95V19.84a2.94,2.94,0,0,0-2.94-2.94Z"/><path fill="#fcc667" d="M10.51,21.43H28.59a3.15,3.15,0,0,1,0,6.3H10.51Z"/><path fill="#f9f9f9" d="M4.85,18.91h5.66V30.25H4.85Z"/><path fill="#fcc667" d="M18.49,35.4,15.2,47.11h4.89L23.38,35.4Z"/><path fill="#3db3ea" d="M31.65,16.89a3,3,0,0,1,2.94,2.95v9.67a2.94,2.94,0,0,1-2.94,2.95h3.76a3,3,0,0,0,2.94-2.95V19.84a3,3,0,0,0-2.94-2.95Z"/><path fill="#fbae36" d="M24.23 21.43a3.15 3.15 0 0 1 0 6.3h4.36a3.15 3.15 0 0 0 0-6.3zM40.78 20.58v8.2l1.91-.58v-7z"/><path fill="#16244d" d="M9.51,16.9v1H4.85a1,1,0,0,0-1,1V30.25a1,1,0,0,0,1,1H9.51v1.21a1,1,0,0,0,1,1h2.6L9.34,46.83a1,1,0,0,0,.17.88,1,1,0,0,0,.8.39h9.78a1,1,0,0,0,1-.72L25,33.46H35.41a3.94,3.94,0,0,0,3.86-3.18L43,29.15a1,1,0,0,0,.71-.95V25.68h1.09v.64a1,1,0,0,0,2,0v-.64h1.48v.64a1,1,0,0,0,2,0v-.64h.58a4.72,4.72,0,1,0,0-2h-.58V23a1,1,0,0,0-2,0v.64H46.78V23a1,1,0,1,0-2,0v.64H43.69V21.16a1,1,0,0,0-.71-1l-3.71-1.13a3.94,3.94,0,0,0-3.86-3.17H10.51A1,1,0,0,0,9.51,16.9ZM55.44,22a2.72,2.72,0,1,1-2.72,2.72A2.72,2.72,0,0,1,55.44,22Zm-43.93.47H28.59a2.15,2.15,0,0,1,0,4.3H11.51ZM5.85,29.25V19.91H9.51v9.34ZM19.33,46.1H16.52l2.73-9.69h2.81ZM41.69,27.46l-2.34.7v-7l2.34.71ZM11.51,17.9h23.9a1.94,1.94,0,0,1,1.94,1.94h0v9.67h0a1.94,1.94,0,0,1-1.94,1.94H24.21a1,1,0,0,0-1,.73l-.63,2.22H18.49a1,1,0,0,0-1,.72l-3.09,11H11.63l3.76-13.37a1,1,0,0,0-.17-.88,1,1,0,0,0-.79-.39H11.51V28.73H28.59a4.15,4.15,0,1,0,0-8.3H11.51Z"/><path fill="#16244d" d="M29.3,24.58a1,1,0,0,0-1-1H23.88a1,1,0,1,0,0,2H28.3A1,1,0,0,0,29.3,24.58Z"/></g></svg>