<svg xmlns="http://www.w3.org/2000/svg" viewBox="0 0 64 64"><path fill="#e6e5e1" d="M21.71 16.45c1.8 4.58-.91 10-4.76 11.47-1.92.76-3.38-1.11-5.24-2.11s-4.09-1.13-5-3.42c-1.8-4.57-.14-9.51 3.71-11a9.17 9.17 0 0 1 11.28 5.08zM19.54 46.59a8.55 8.55 0 0 1 3.1 11.09c-1 1.66-3.11 1.13-5 1.46S14 60.66 12 59.51c-3.93-2.3-5.55-6.86-3.61-10.17a8.51 8.51 0 0 1 11.14-2.75zM46.77 12A7.82 7.82 0 0 1 39 19c-1.75-.12-2.19-2.09-3.24-3.53S33 13.17 33.16 11.09C33.44 6.94 36.5 3.77 40 4a7.77 7.77 0 0 1 6.78 8zM57.18 42.43C54.81 47.8 48 50 43.45 48c-2.26-1-1.9-3.81-2.6-6.22s-2.48-4.42-1.29-7.1c2.36-5.37 7.94-8.1 12.46-6.11S59.54 37.07 57.18 42.43z"/><path fill="#cac7c1" d="M55.06 40.29a4.61 4.61 0 0 0-3.52 7.52 10.58 10.58 0 0 0 5.64-5.38 9.76 9.76 0 0 0 .47-1.38 4.56 4.56 0 0 0-2.54-.76zM15.61 45.54a8.92 8.92 0 0 0-2.82.47 8.13 8.13 0 0 1 1.28.58 8.56 8.56 0 0 1 3.1 11.09c-1 1.66-3.11 1.13-5 1.46l-.51.12.39.25c2 1.15 3.67 0 5.6-.37s4.07.2 5-1.46a8.55 8.55 0 0 0-3.1-11.09A7.83 7.83 0 0 0 15.61 45.54z"/><path fill="#cac7c1" d="M48.5 28a8.68 8.68 0 0 0-2.39.48l.44.16c4.51 2 7.52 8.48 5.15 13.84a10.83 10.83 0 0 1-7.28 5.94 11.13 11.13 0 0 0 12.76-5.94c2.36-5.36-.64-11.85-5.16-13.84A7.68 7.68 0 0 0 48.5 28zM13.56 10.88a7.55 7.55 0 0 0-3 .45 9 9 0 0 1 5.69 5.12 9.36 9.36 0 0 1-2.93 10.39c1.18.85 2.3 1.61 3.65 1.08 3.84-1.51 6.56-6.89 4.75-11.47a9.24 9.24 0 0 0-8.15-5.57zM39.34 4a5.47 5.47 0 0 0-2.4.7A7.82 7.82 0 0 1 41.29 12a7.78 7.78 0 0 1-4 6.07A2.21 2.21 0 0 0 39 19a7.81 7.81 0 0 0 7.8-7A7.77 7.77 0 0 0 40 4zM15.61 45.54a9.07 9.07 0 0 0-3.66.78 5.36 5.36 0 0 0 9.66 2 7.74 7.74 0 0 0-2.07-1.78 7.83 7.83 0 0 0-3.93-1.05z"/><circle cx="25.99" cy="34.76" r="3.17" fill="#cac7c1"/><path fill="#cac7c1" d="M41.39,13.2a5.45,5.45,0,0,0-5,3.44h0C37.08,17.81,37.65,19,39,19a7.78,7.78,0,0,0,6.76-3.83h0a5.49,5.49,0,0,0-4.23-2Z"/><circle cx="48.95" cy="34.38" r="2.17" fill="#cac7c1"/><path fill="#cac7c1" d="M40.85 37.08a4.8 4.8 0 0 0-1.55.26l0 0c.27 1.5 1.15 2.87 1.6 4.41s.47 3.26 1 4.56l.09 0a4.72 4.72 0 0 0-1.11-9.31zM8.38 18.55a5.81 5.81 0 0 0-2.36.5v0a10.46 10.46 0 0 0 .71 3.32c.9 2.29 3.14 2.42 5 3.42A15.75 15.75 0 0 1 13.5 27a5.77 5.77 0 0 0-5.12-8.43z"/><path fill="#a6a299" d="M15.61 45.54a9 9 0 0 0-2.84.46 7.55 7.55 0 0 1 1.3.59 8 8 0 0 1 3.38 4 5.35 5.35 0 0 0 4.16-2.27 7.74 7.74 0 0 0-2.07-1.78 7.83 7.83 0 0 0-3.93-1.05zM55.06 40.29a4.55 4.55 0 0 0-3 1.17c-.11.33-.23.65-.37 1a10.09 10.09 0 0 1-1.14 1.94 4.36 4.36 0 0 0-.05.52 4.62 4.62 0 0 0 1 2.92 10.58 10.58 0 0 0 5.64-5.38 9.76 9.76 0 0 0 .47-1.38 4.56 4.56 0 0 0-2.54-.76zM13.72 26.49l-.41.35.19.14A5.27 5.27 0 0 0 13.72 26.49zM41.39 13.2l-.3 0a8 8 0 0 1-3.77 4.83A2.24 2.24 0 0 0 39 19a7.78 7.78 0 0 0 6.76-3.83h0a5.49 5.49 0 0 0-4.23-2z"/><path fill="#16244d" d="M17.22 10.7a9.59 9.59 0 0 0-7.16-.26c-4.35 1.71-6.27 7.24-4.27 12.32.81 2.06 2.49 2.71 4 3.28a13.45 13.45 0 0 1 1.48.65c1.49.8 2.93 2.41 4.81 2.41a3.33 3.33 0 0 0 1.27-.25 10.16 10.16 0 0 0 5.32-12.76A9.79 9.79 0 0 0 17.22 10.7zM10.49 24.18C9 23.62 8.12 23.21 7.65 22a10.11 10.11 0 0 1-.58-2.27 4.78 4.78 0 0 1 1.31-.21 4.78 4.78 0 0 1 4.77 4.77A5.18 5.18 0 0 1 13 25.43a8.7 8.7 0 0 0-.83-.5A15.5 15.5 0 0 0 10.49 24.18zM16.59 27a2 2 0 0 1-1.85-.38 6.62 6.62 0 0 0 .41-2.29 6.78 6.78 0 0 0-6.77-6.77 6.6 6.6 0 0 0-1.33.14 6.32 6.32 0 0 1 3.74-5.39 6.41 6.41 0 0 1 2.38-.43 8.53 8.53 0 0 1 3.28.68 7.76 7.76 0 0 1 4.33 4.27A8.19 8.19 0 0 1 16.59 27zM58.09 42.84a11.49 11.49 0 0 0 0-9 11.25 11.25 0 0 0-5.69-6.19c-5-2.22-11.19.75-13.78 6.62-1 2.34-.19 4.27.55 6a15.64 15.64 0 0 1 .7 1.81 15 15 0 0 1 .39 2c.3 1.86.64 4 2.77 4.91a10 10 0 0 0 4 .81 12.45 12.45 0 0 0 4.39-.83A11.66 11.66 0 0 0 58.09 42.84zM42.52 45.11c-.09-.41-.18-.87-.26-1.4a19.36 19.36 0 0 0-.45-2.19A17.11 17.11 0 0 0 41 39.47c-.21-.48-.39-.93-.55-1.36.13 0 .25 0 .38 0a3.71 3.71 0 0 1 1.67 7zm1.33 2a2.55 2.55 0 0 1-.39-.24 5.71 5.71 0 0 0-2.61-10.79c-.22 0-.44 0-.66.05a3.88 3.88 0 0 1 .28-1c1.68-3.8 5.11-6.16 8.44-6.16a6.6 6.6 0 0 1 2.71.57 9.37 9.37 0 0 1 4.63 5.11 9.85 9.85 0 0 1 .67 5 5.73 5.73 0 0 0-1.87-.31 5.58 5.58 0 0 0-5 8A9.13 9.13 0 0 1 43.85 47.11zm8.06-.58a3.54 3.54 0 0 1-.4-1.63 3.63 3.63 0 0 1 3.6-3.61 3.54 3.54 0 0 1 1.33.26c-.06.16-.11.32-.18.48h0A9.3 9.3 0 0 1 51.91 46.53zM13.79 61a8.75 8.75 0 0 0 2.55-.5 12.22 12.22 0 0 1 1.44-.37A10.47 10.47 0 0 1 19.29 60c1.52-.07 3.24-.15 4.22-1.81a9 9 0 0 0 .76-6.68 9.21 9.21 0 0 0-4.22-5.78A9.1 9.1 0 0 0 13 44.9a9 9 0 0 0-5.43 3.94c-2.21 3.78-.43 8.95 4 11.53A4.39 4.39 0 0 0 13.79 61zm1.79-14.46a6.88 6.88 0 0 1 3.46.91 6.26 6.26 0 0 1 1.23.94 4.34 4.34 0 0 1-7.1-1.46l.32-.11A8 8 0 0 1 15.58 46.54zM9.26 49.85a6.26 6.26 0 0 1 2.1-2.09A6.34 6.34 0 0 0 21.51 50a8.23 8.23 0 0 1 .82 2 7.07 7.07 0 0 1-.55 5.18c-.4.69-1.2.76-2.58.82a15.49 15.49 0 0 0-1.76.15 15.21 15.21 0 0 0-1.68.44c-1.36.41-2.25.64-3.25.06C9.06 56.62 7.6 52.68 9.26 49.85zM47.77 12.07a8.74 8.74 0 0 0-7.71-9c-4.06-.3-7.58 3.31-7.9 8C32 13 33.1 14.09 34 15.09a13.16 13.16 0 0 1 .89 1c1 1.36 1.61 3.77 4 3.93A8.76 8.76 0 0 0 47.77 12.07zm-13.61-.91C34.39 7.69 36.81 5 39.62 5a6.71 6.71 0 0 1 6.15 6.93 6.15 6.15 0 0 1-.34 1.61A6.44 6.44 0 0 0 41.5 12.2h-.13a6.47 6.47 0 0 0-5 2.53c-.28-.36-.59-.7-.88-1C34.59 12.76 34.09 12.17 34.16 11.16zM39 18c-.59 0-.94-.48-1.49-1.44a4.46 4.46 0 0 1 3.84-2.4h.11a4.42 4.42 0 0 1 2.94 1.14A6.69 6.69 0 0 1 39 18zM30.16 34.76A4.17 4.17 0 1 0 26 38.93 4.18 4.18 0 0 0 30.16 34.76zm-6.34 0A2.17 2.17 0 1 1 26 36.93 2.18 2.18 0 0 1 23.82 34.76z"/><path fill="#16244d" d="M16.57 16.53a1.6 1.6 0 1 0 .53 2.19A1.6 1.6 0 0 0 16.57 16.53zM39.83 9.67a1.6 1.6 0 1 0-.53-2.2A1.61 1.61 0 0 0 39.83 9.67zM52.12 34.38A3.17 3.17 0 1 0 49 37.55 3.17 3.17 0 0 0 52.12 34.38zM49 35.55a1.17 1.17 0 1 1 1.16-1.17A1.17 1.17 0 0 1 49 35.55zM17.83 56.56a1.6 1.6 0 1 0-.53-2.19A1.6 1.6 0 0 0 17.83 56.56zM36.15 55.05a1 1 0 0 0 1-1v-.31h.31a1 1 0 0 0 0-2h-.31v-.31a1 1 0 0 0-2 0v.31h-.3a1 1 0 0 0 0 2h.3v.31A1 1 0 0 0 36.15 55.05zM38.71 26.82a1 1 0 0 0 1-1v-.31H40a1 1 0 0 0 0-2h-.31v-.3a1 1 0 0 0-2 0v.3h-.3a1 1 0 0 0 0 2h.3v.31A1 1 0 0 0 38.71 26.82zM25.46 11.34a1 1 0 0 0-1 1v.3h-.31a1 1 0 0 0 0 2h.31V15a1 1 0 0 0 2 0v-.31h.3a1 1 0 1 0 0-2h-.3v-.3A1 1 0 0 0 25.46 11.34zM10.2 38.37a1 1 0 0 0 1-1v-.31h.31a1 1 0 0 0 0-2H11.2v-.31a1 1 0 0 0-2 0v.31H8.89a1 1 0 0 0 0 2H9.2v.31A1 1 0 0 0 10.2 38.37zM53.74 17.17a1 1 0 0 0-1 1v.31h-.31a1 1 0 0 0 0 2h.31v.3a1 1 0 1 0 2 0v-.3h.31a1 1 0 0 0 0-2h-.31v-.31A1 1 0 0 0 53.74 17.17z"/></svg>