<svg xmlns="http://www.w3.org/2000/svg" enable-background="new 0 0 64 64" viewBox="0 0 64 64"><path fill="#a0c54f" d="M54,6H38c-1.488,0-2.866,0.468-4,1.26C32.866,6.468,31.488,6,30,6H14c-3.866,0-7,3.134-7,7
			c0,3.866,3.134,7,7,7h16c1.488,0,2.866-0.468,4-1.26c1.134,0.792,2.512,1.26,4,1.26h16c3.866,0,7-3.134,7-7
			C61,9.134,57.866,6,54,6z"/><path fill="#cc503d" d="M20 25h-4v-6c0-1.105.895-2 2-2h0c1.105 0 2 .895 2 2V25zM51 26h-4v-7c0-1.105.895-2 2-2h0c1.105 0 2 .895 2 2V26z"/><path fill="#fcc365" d="M57,25H45l-3-2h-3v3l-2-2H9c-1.105,0-2,0.895-2,2v1.875L1,29v4l6,1v1c0,1.105,0.895,2,2,2h2v1
			c0,1.105,0.895,2,2,2h4c1.105,0,2-0.895,2-2v-1h20v2h3l3-1l-4,9v2h5l-1.527,9h7.483c1.456,0,2.702-1.045,2.954-2.479L58,38h-1
			c3.314,0,6-2.686,6-6v-1C63,27.686,60.314,25,57,25z"/><path fill="#e65a45" d="M17,40h-4c-1.105,0-2-0.895-2-2v-8c0-1.105,0.895-2,2-2h4c1.105,0,2,0.895,2,2v8
			C19,39.105,18.105,40,17,40z"/><rect width="2" height="2" x="14" y="31" fill="#cc503d"/><rect width="2" height="2" x="14" y="35" fill="#cc503d"/><path fill="#e65a45" d="M57,38H45l-3,1h-3V23h3l3,2h12c3.314,0,6,2.686,6,6v1C63,35.314,60.314,38,57,38z"/><polygon fill="#cc503d" points="45 38 41 47 41 49 46 49 48 38"/><path fill="#fcc365" d="M54.5,34h-7c-1.381,0-2.5-1.119-2.5-2.5v0c0-1.381,1.119-2.5,2.5-2.5h7c1.381,0,2.5,1.119,2.5,2.5
			v0C57,32.881,55.881,34,54.5,34z"/><polygon fill="#e65a45" points="7 34 1 33 1 29 7 27.875"/><path fill="#e65a45" d="M37,6.078c-1.104,0.159-2.125,0.571-3,1.182c-0.875-0.611-1.896-1.023-3-1.182v13.844
				c1.104-0.159,2.125-0.571,3-1.182c0.875,0.611,1.896,1.023,3,1.182V6.078z"/><path fill="#cc503d" d="M33.5,33H19v-3h14.5c0.828,0,1.5,0.672,1.5,1.5v0C35,32.328,34.328,33,33.5,33z"/><path fill="#e65a45" d="M53 48h3.237l.705-4H55c-1.105 0-2 .895-2 2V48zM53 48h-1c-1.105 0-2 .895-2 2v2h5.531l.705-4H53z"/><rect width="2" height="2" x="52" y="10" fill="#91b348"/><g><rect width="4" height="2" x="46" y="10" fill="#91b348"/></g></svg>