<svg xmlns="http://www.w3.org/2000/svg" viewBox="0 0 32 32"><g data-name="Water Gun"><path fill="#0097f8" d="M16,13H7a1,1,0,0,1-1-1V3A1,1,0,0,1,7,2h9a1,1,0,0,1,1,1v9A1,1,0,0,1,16,13ZM8,11h7V4H8Z"/><path fill="#394950" d="M15.09,25h-4a1,1,0,0,1-1-1.17l.71-4a1,1,0,0,1,1-.83h4a1,1,0,0,1,1,1.17l-.71,4A1,1,0,0,1,15.09,25Zm-2.81-2h2l.35-2h-2Z"/><rect width="6" height="6" x="24" y="13" fill="#ffbe3f" rx="1"/><path fill="#00b459" d="M25,11H3a1,1,0,0,0-1,1v6a3,3,0,0,0,3,3H25a1,1,0,0,0,1-1V12A1,1,0,0,0,25,11Z"/><path fill="#00b459" d="M12.56,19.36a1,1,0,0,0-.77-.36h-6a1,1,0,0,0-1,.83l-1.59,9a1,1,0,0,0,1,1.17h6a1,1,0,0,0,1-.83l1.59-9A1,1,0,0,0,12.56,19.36Z"/><path fill="#ffbe3f" d="M16.85 11.47A1 1 0 0 0 16 11H3a1 1 0 0 0-1 1v4a1 1 0 0 0 1 1H14a1 1 0 0 0 .89-.55l2-4A1 1 0 0 0 16.85 11.47zM7.26 24h-2a1 1 0 1 1 0-2h2a1 1 0 0 1 0 2zM6.74 27h-2a1 1 0 0 1 0-2h2a1 1 0 1 1 0 2z"/><path fill="#0097f8" d="M17.5,2H5.5a3.5,3.5,0,0,0,0,7h12a3.5,3.5,0,0,0,0-7Z"/></g></svg>