<svg viewBox="0 0 2048 500" xmlns="http://www.w3.org/2000/svg" xmlns:xlink="http://www.w3.org/1999/xlink">
<path fill="rgba(47, 73, 94, 1)" d="M 0 0 C 153.5 0 153.5 66 307 66 L 307 66 L 307 0 L 0 0 Z" stroke-width="0"></path> 
<path fill="rgba(47, 73, 94, 1)" d="M 306 66 C 407.5 66 407.5 31 509 31 L 509 31 L 509 0 L 306 0 Z" stroke-width="0"></path> 
<path fill="rgba(47, 73, 94, 1)" d="M 508 31 C 704.5 31 704.5 60 901 60 L 901 60 L 901 0 L 508 0 Z" stroke-width="0"></path><path fill="rgba(47, 73, 94, 1)" d="M 900 60 C 1073 60 1073 34 1246 34 L 1246 34 L 1246 0 L 900 0 Z" stroke-width="0"></path><path fill="rgba(47, 73, 94, 1)" d="M 1245 34 C 1428.5 34 1428.5 74 1612 74 L 1612 74 L 1612 0 L 1245 0 Z" stroke-width="0"></path>
<path fill="rgba(47, 73, 94, 1)" d="M 1611 74 C 1829.5 74 1829.5 0 2048 0 L 2048 0 L 2048 0 L 1611 0 Z" stroke-width="0"></path></svg>