<svg xmlns="http://www.w3.org/2000/svg" xmlns:xlink="http://www.w3.org/1999/xlink" width="100%" height="100%" viewBox="260.627685546875 15.97717571258545 697.0042724609375 587.1611938476562" preserveAspectRatio="xMinYMin meet" ><rect id="svgEditorBackground" x="0" y="0" width="1400" height="850" style="fill: none; stroke: none;"/><path d="M2.340304,.8c0,-2,-2,-3,-4,-3c-2,0,-3.2484,0.3437,-4.1307,1.9058c-0.8083,2.0782,0.1307,3.0942,0.727,3.8679l1.0585,1.3598c0.4429,-0.253,-0.1666,-1.5138,2.3451,-1.1335c2,0,4,-1,4,-3Z" style="fill:#1F326E; stroke:black; vector-effect:non-scaling-stroke;stroke-width:1px;fill-opacity:1;" id="e10_shape" transform="matrix(-66.6543 0.254862 -0.254862 -66.6543 467.46 427.389)"/><path d="M-2.731976,0.512384h0a5.000005,5.000005,0,0,1,0.981304-1.005298a2.062527,2.062527,0,0,0,1.018696-2.994702a2.431147,2.431147,0,0,0,-0.468087-2.314539a3.888921,3.888921,0,0,1,-1.531913-1.685461a4.61,4.61,0,0,0,1,4a4.61,4.61,0,0,0,-1,4Z" style="fill:#152754; stroke:black; vector-effect:non-scaling-stroke;stroke-width:1px;" id="e12_shape" transform="matrix(0 30.831 -30.831 0 622.68 122.02)"/><g id="e15_group"/><g id="e16_group"/><g id="e17_group" transform="matrix(1 0 0 1 164.395 5.45963)"/><path d="M401.782961,422.809366a44.485,44.485,0,0,0,47.317-4.246" style="fill:none;stroke:white;stroke-width:5.08px;stroke-linecap:round;stroke-linejoin:round;" id="e16_circleArc"/><path d="M327.319,398.251a14.442,14.442,0,1,1,28.877,0" style="fill:none;stroke:silver;stroke-width:5.14px;stroke-linecap:round;" id="e1_circleArc"/><path d="M491.641629,403.751339a14.442,14.442,0,1,1,28.877,0" style="fill:none;stroke:silver;stroke-width:5.14px;stroke-linecap:round;" id="e4_circleArc"/></svg>